<?xml version="1.0" standalone="no"?>
<!DOCTYPE svg PUBLIC "-//W3C//DTD SVG 20010904//EN"
 "http://www.w3.org/TR/2001/REC-SVG-20010904/DTD/svg10.dtd">
<svg version="1.0" xmlns="http://www.w3.org/2000/svg"
 width="63.000000pt" height="63.000000pt" viewBox="0 0 63.000000 63.000000"
 preserveAspectRatio="xMidYMid meet">

<g transform="translate(0.000000,63.000000) scale(0.100000,-0.100000)"
fill="#a855f7" stroke="none">
<path d="M517 551 l-54 -51 -11 25 c-15 33 -72 60 -107 51 -15 -4 -38 -18 -51
-31 -21 -21 -28 -23 -51 -14 -74 28 -160 -62 -124 -129 9 -17 7 -25 -14 -46
-31 -31 -40 -67 -27 -106 7 -19 7 -30 1 -30 -16 0 -49 -63 -49 -93 0 -39 58
-97 97 -97 30 0 93 33 93 49 0 6 11 6 30 -1 39 -13 75 -4 106 27 21 21 29 23
46 14 67 -36 157 50 129 124 -9 23 -7 30 14 51 13 13 27 36 31 51 9 36 -18 92
-51 107 l-25 11 22 24 c25 27 38 29 38 7 0 -9 7 -14 18 -12 14 3 17 14 17 57
0 34 -5 56 -12 58 -7 3 -37 -18 -66 -46z m-113 -37 c21 -20 20 -53 -1 -76 -20
-22 -42 -23 -71 -2 -41 29 -19 94 33 94 13 0 31 -7 39 -16z m-150 -46 c20 -29
20 -47 -1 -70 -34 -38 -93 -12 -93 42 0 50 66 69 94 28z m260 -64 c34 -34 9
-94 -39 -94 -24 0 -55 33 -55 59 0 42 63 66 94 35z m-154 -44 c24 -24 25 -47
3 -72 -32 -35 -93 -13 -93 34 0 27 28 58 52 58 10 0 27 -9 38 -20z m-150 -40
c24 -24 25 -47 3 -72 -18 -20 -63 -24 -81 -6 -18 18 -15 75 6 87 26 16 50 13
72 -9z m258 -66 c24 -17 30 -62 10 -82 -7 -7 -24 -12 -39 -12 -52 0 -77 54
-42 92 20 22 42 23 71 2z m-148 -44 c38 -38 15 -90 -40 -90 -46 0 -66 55 -33
92 21 24 48 23 73 -2z m-167 -29 c15 -6 27 -21 32 -38 12 -50 -62 -90 -93 -49
-20 25 -20 46 -1 70 23 29 27 30 62 17z"/>
</g>
</svg>
